<svg width="512" height="512" version="1.1" viewBox="0 0 512 512" xmlns="http://www.w3.org/2000/svg"><style>path{fill:#333}@media(prefers-color-scheme:dark){path{fill: #ccc}}</style><path d="m320.36 40.255c-13.294-10.827-38.806-16.255-64.357-16.255-25.535 0-51.048 5.4211-64.341 16.248v165.57h128.71v-165.56zm139.68 181.52 4.1141 2.1963c-4.0677-79.499-40.159-143.34-131.3-165.4l8e-3 133.96c52.919 5.2277 97.742 15.637 127.18 29.24m-280.88-29.24 0.01546-133.96c-91.161 22.063-127.25 85.902-131.32 165.41l4.1141-2.1963c29.449-13.611 74.271-24.02 127.19-29.247"/><path d="m457.07 282.96v-26.958h30.933c0-10.401-7.9808-20.23-21.909-29.085-18.119-4.4389-70.574-16.433-133.24-22.682v13.278h-153.7v-13.278c-62.679 6.2485-115.16 18.235-133.25 22.697-13.928 8.8392-21.901 18.668-21.901 29.07h30.933v26.958c-11.631 5.4675-23.2 17.818-23.2 42.642 0 30.786 17.802 42.58 31.428 45.573 9.3341 64.875 147.09 116.83 192.84 116.83s183.5-51.953 192.84-116.83c13.626-2.9928 31.428-14.786 31.428-45.573 0-24.824-11.569-37.174-23.2-42.642zm-15.467 73.575h-7.7333v7.7333c0 54.419-130.78 108.27-177.87 108.27s-177.87-53.847-177.87-108.27v-7.7333h-7.7333c-0.94347 0-23.2-0.35573-23.2-30.933 0-29.65 20.888-30.887 23.2-30.933h7.7333v-38.667h355.73v38.667h7.7333c0.94346 0 23.2 0.35573 23.2 30.933 0 29.65-20.888 30.887-23.2 30.933z"/><path d="m201.87 306.72c0-4.2688-0.87387-8.2979-2.2813-12.079 7.9653 5.7768 14.376 13.549 17.748 23.664 0-61.851-108.27-61.851-108.27-7.7179 5.0421-12.621 16.719-21.035 30.647-25.149a34.444 34.444 0 0 0-7.4472 21.282 34.8 34.8 0 0 0 69.6 0m92.8 11.585c3.3717-10.115 9.7827-17.887 17.748-23.664a34.421 34.421 0 0 0-2.2813 12.079 34.8 34.8 0 0 0 69.6 0 34.46 34.46 0 0 0-7.4472-21.282c13.928 4.1141 25.605 12.528 30.647 25.149 0-54.133-108.27-54.133-108.27 7.7179m23.973 74.642h-125.27c-6.96 0-6.96 6.6275-6.96 6.6275 0 26.525 34.8 39.773 69.6 39.773s69.6-13.247 69.6-39.773c-8e-3 0-8e-3 -6.6275-6.9677-6.6275"/></svg>
