<svg width="512" height="512" version="1.1" viewBox="0 0 512 512" xmlns="http://www.w3.org/2000/svg"><rect width="512" height="512" rx="96" ry="96" fill="#eee"/><g fill="#1e293b"><path d="m309.26 77.453c-11.002-8.96-32.115-13.453-53.261-13.453-21.133 0-42.246 4.4864-53.248 13.446v137.02h106.52v-137.02zm115.6 150.22 3.4048 1.8176c-3.3664-65.792-33.235-118.62-108.67-136.88l6e-3 110.87c43.795 4.3264 80.89 12.941 105.25 24.198m-232.45-24.198 0.0128-110.87c-75.443 18.259-105.31 71.091-108.68 136.89l3.4048-1.8176c24.371-11.264 61.466-19.878 105.26-24.205"/><path d="m422.4 278.31v-22.31h25.6c0-8.608-6.6048-16.742-18.131-24.07-14.995-3.6736-58.406-13.6-110.27-18.771v10.989h-127.2v-10.989c-51.872 5.1712-95.309 15.091-110.28 18.784-11.526 7.3152-18.125 15.45-18.125 24.058h25.6v22.31c-9.6256 4.5248-19.2 14.746-19.2 35.29 0 25.478 14.733 35.238 26.01 37.715 7.7248 53.69 121.73 96.685 159.59 96.685s151.87-42.995 159.59-96.685c11.277-2.4768 26.01-12.237 26.01-37.715 0-20.544-9.5744-30.765-19.2-35.29zm-12.8 60.89h-6.4v6.4c0 45.037-108.23 89.6-147.2 89.6s-147.2-44.563-147.2-89.6v-6.4h-6.4c-0.7808 0-19.2-0.2944-19.2-25.6 0-24.538 17.286-25.562 19.2-25.6h6.4v-32h294.4v32h6.4c0.7808 0 19.2 0.2944 19.2 25.6 0 24.538-17.286 25.562-19.2 25.6z"/><path d="m211.2 297.97c0-3.5328-0.7232-6.8672-1.888-9.9968 6.592 4.7808 11.898 11.213 14.688 19.584 0-51.187-89.6-51.187-89.6-6.3872 4.1728-10.445 13.837-17.408 25.363-20.813a28.506 28.506 0 0 0-6.1632 17.613 28.8 28.8 0 0 0 57.6 0m76.8 9.5872c2.7904-8.3712 8.096-14.803 14.688-19.584a28.486 28.486 0 0 0-1.888 9.9968 28.8 28.8 0 0 0 57.6 0 28.518 28.518 0 0 0-6.1632-17.613c11.526 3.4048 21.19 10.368 25.363 20.813 0-44.8-89.6-44.8-89.6 6.3872m19.84 61.773h-103.67c-5.76 0-5.76 5.4848-5.76 5.4848 0 21.952 28.8 32.915 57.6 32.915s57.6-10.963 57.6-32.915c-6e-3 0-6e-3 -5.4848-5.7664-5.4848"/></g></svg>
